<?xml version="1.0" encoding="UTF-8" standalone="no"?>
<svg
   xmlns:dc="http://purl.org/dc/elements/1.1/"
   xmlns:cc="http://creativecommons.org/ns#"
   xmlns:rdf="http://www.w3.org/1999/02/22-rdf-syntax-ns#"
   xmlns:svg="http://www.w3.org/2000/svg"
   xmlns="http://www.w3.org/2000/svg"
   viewBox="0 0 718.08032 182.54169"
   height="182.54169"
   width="718.08032"
   xml:space="preserve"
   id="svg28"
   version="1.1"><metadata
     id="metadata34"><rdf:RDF><cc:Work
         rdf:about=""><dc:format>image/svg+xml</dc:format><dc:type
           rdf:resource="http://purl.org/dc/dcmitype/StillImage" /><dc:title></dc:title></cc:Work></rdf:RDF></metadata><defs
     id="defs32"><radialGradient
       id="radialGradient56"
       spreadMethod="pad"
       gradientTransform="matrix(0.272079,0.296106,-0.621683,0.571237,530.27303,-212.33705)"
       gradientUnits="userSpaceOnUse"
       r="98.460442"
       cy="383.23032"
       cx="160.8737"
       fy="383.23032"
       fx="160.8737"><stop
         id="stop50"
         offset="0"
         style="stop-opacity:1;stop-color:#8dc2ef" /><stop
         id="stop52"
         offset="0.5"
         style="stop-opacity:1;stop-color:#0c66a5" /><stop
         id="stop54"
         offset="1"
         style="stop-opacity:1;stop-color:#00447e" /></radialGradient><linearGradient
       id="linearGradient72"
       spreadMethod="pad"
       gradientTransform="matrix(0.67660086,-0.35072234,-0.6394457,-0.27985283,338.36788,569.55037)"
       gradientUnits="userSpaceOnUse"
       y2="448.67822"
       x2="444.67578"
       y1="448.67822"
       x1="230.65758"><stop
         id="stop68"
         offset="0"
         style="stop-opacity:1;stop-color:#ffbd00" /><stop
         id="stop70"
         offset="1"
         style="stop-opacity:1;stop-color:#ffe79f" /></linearGradient><radialGradient
       id="radialGradient92"
       spreadMethod="pad"
       gradientTransform="matrix(0.464413,0.369513,-0.207989,0.261406,329.7209,-236.2141)"
       gradientUnits="userSpaceOnUse"
       r="160.05302"
       cy="528.89661"
       cx="471.85617"
       fy="528.89661"
       fx="471.85617"><stop
         id="stop86"
         offset="0"
         style="stop-opacity:1;stop-color:#8dc2ef" /><stop
         id="stop88"
         offset="0.5"
         style="stop-opacity:1;stop-color:#0c66a5" /><stop
         id="stop90"
         offset="1"
         style="stop-opacity:1;stop-color:#00447e" /></radialGradient><linearGradient
       id="linearGradient108"
       spreadMethod="pad"
       gradientTransform="matrix(0.67660086,-0.35072234,-0.6394457,-0.27985283,460.89249,504.86107)"
       gradientUnits="userSpaceOnUse"
       y2="363.7417"
       x2="403.5351"
       y1="540.37128"
       x1="403.5351"><stop
         id="stop104"
         offset="0"
         style="stop-opacity:1;stop-color:#ffbd00" /><stop
         id="stop106"
         offset="1"
         style="stop-opacity:1;stop-color:#ffe79f" /></linearGradient><clipPath
       id="clipPath124"
       clipPathUnits="userSpaceOnUse"><path
         id="path122"
         d="M 0,0 H 193.953 V 136.906 H 0 Z" /></clipPath><clipPath
       id="clipPath134"
       clipPathUnits="userSpaceOnUse"><path
         id="path132"
         d="M 0,0 H 539 V 137 H 0 Z" /></clipPath></defs><g
     transform="matrix(1.3333333,0,0,1.3333333,0,7.8968755e-6)"
     id="g36"><g
       id="g38"><g
         id="g40"><g
           id="g42"><g
             id="g48"><path
               id="path58"
               style="fill:url(#radialGradient56);fill-rule:evenodd;stroke:none"
               d="m 355.352,26.766 c 18.414,-0.399 29.921,11.992 29.921,11.992 0,0 -14.839,13.172 -16.628,14.851 -2.762,-1.597 -7.176,-4.796 -13.622,-4.796 -13.101,0 -23.585,9.933 -23.125,22.73 0.165,12.613 10.454,21.68 23.02,21.68 7.93,-0.149 12.535,-3.766 16.488,-7.289 3.223,3.996 10.367,11.566 14.598,17.07 -9.508,5.316 -16.629,11.523 -31.113,10.914 -22.145,0.609 -43.411,-17.074 -43.735,-41.977 -0.461,-26.785 19.793,-45.175 44.196,-45.175 z" /></g></g></g><g
         id="g60"><path
           id="path62"
           style="fill:none;stroke:#240053;stroke-width:4.0359;stroke-linecap:butt;stroke-linejoin:miter;stroke-miterlimit:4;stroke-dasharray:none;stroke-opacity:1"
           d="m 355.352,26.766 c 18.414,-0.399 29.921,11.992 29.921,11.992 0,0 -14.839,13.172 -16.628,14.851 -2.762,-1.597 -7.176,-4.796 -13.622,-4.796 -13.101,0 -23.585,9.933 -23.125,22.73 0.165,12.613 10.454,21.68 23.02,21.68 7.93,-0.149 12.535,-3.766 16.488,-7.289 3.223,3.996 10.367,11.566 14.598,17.07 -9.508,5.316 -16.629,11.523 -31.113,10.914 -22.145,0.609 -43.411,-17.074 -43.735,-41.977 -0.461,-26.785 19.793,-45.175 44.196,-45.175 z" /></g><g
         id="g64"><g
           id="g66"><path
             id="path74"
             style="fill:url(#linearGradient72);fill-opacity:1;fill-rule:evenodd;stroke:#ff7c00;stroke-width:4.0359;stroke-linecap:butt;stroke-linejoin:round;stroke-miterlimit:4;stroke-dasharray:none;stroke-opacity:1"
             d="m 364.934,82.508 c 2.3,0.062 19.656,0.004 22.097,0.004 0.16,2.597 -1.383,9.191 10.125,8.793 8.977,-0.2 14.235,-7.235 18.461,-13.176 4.227,-5.941 7.422,-10.793 15.25,-10.793 7.946,0 13.973,5.836 14.039,14.437 0.032,4.993 -2.32,9.454 -11.293,16.024 -8.972,6.57 -24.715,15.695 -36.457,15.894 -23.937,-0.398 -32.683,-15.589 -32.222,-31.183 z m 9.609,-35.434 c 6.387,-0.035 11.48,4.949 11.594,11.391 0,6.461 -5.274,11.543 -11.594,11.543 -6.371,-0.059 -11.328,-4.891 -11.363,-11.524 -0.137,-6.062 5.031,-11.386 11.363,-11.41 z" /></g></g><g
         id="g76"><g
           id="g78"><g
             id="g84"><path
               id="path94"
               style="fill:url(#radialGradient92);fill-rule:evenodd;stroke:none"
               d="m 451.516,105.969 c 5.523,4.996 12.429,8.195 22.558,8.394 12.461,-0.05 34.578,-13.465 39.692,-17.617 4.742,-3.742 8.136,-8.926 8.136,-14.887 -0.027,-6.832 -6.054,-13.211 -13.894,-13.406 -8.692,0.051 -11.59,5.078 -16.41,10.996 -4.821,5.918 -9.926,12.727 -17.985,12.93 -8.746,-0.402 -11.754,-5.281 -11.699,-12.395 -0.164,-14.562 -13.004,-30.781 -32.226,-30.781 -17.84,-0.328 -32.629,15.942 -32.168,31.332 -0.325,16.735 12.16,33.828 33.742,33.43 8.285,-0.399 14.269,-3.598 20.254,-7.996 z m -21.84,-35.391 c -7.113,0 -11.426,5.371 -11.418,11.297 0,6.18 4.254,11.539 11.402,11.555 6.195,0 11.285,-4.684 11.278,-11.403 0.007,-6.371 -4.629,-11.297 -11.262,-11.449 z" /></g></g></g><g
         id="g96"><path
           id="path98"
           style="fill:none;stroke:#240053;stroke-width:4.0359;stroke-linecap:butt;stroke-linejoin:miter;stroke-miterlimit:4;stroke-dasharray:none;stroke-opacity:1"
           d="m 451.516,105.969 c 5.523,4.996 12.429,8.195 22.558,8.394 12.461,-0.05 34.578,-13.465 39.692,-17.617 4.742,-3.742 8.136,-8.926 8.136,-14.887 -0.027,-6.832 -6.054,-13.211 -13.894,-13.406 -8.692,0.051 -11.59,5.078 -16.41,10.996 -4.821,5.918 -9.926,12.727 -17.985,12.93 -8.746,-0.402 -11.754,-5.281 -11.699,-12.395 -0.164,-14.562 -13.004,-30.781 -32.226,-30.781 -17.84,-0.328 -32.629,15.942 -32.168,31.332 -0.325,16.735 12.16,33.828 33.742,33.43 8.285,-0.399 14.269,-3.598 20.254,-7.996 z m -21.84,-35.391 c -7.113,0 -11.426,5.371 -11.418,11.297 0,6.18 4.254,11.539 11.402,11.555 6.195,0 11.285,-4.684 11.278,-11.403 0.007,-6.371 -4.629,-11.297 -11.262,-11.449 z" /></g><g
         id="g100"><g
           id="g102"><path
             id="path110"
             style="fill:url(#linearGradient108);fill-opacity:1;fill-rule:evenodd;stroke:#ff7c00;stroke-width:4.0359;stroke-linecap:butt;stroke-linejoin:miter;stroke-miterlimit:4;stroke-dasharray:none;stroke-opacity:1"
             d="m 504.777,49.203 c -19.797,-0.219 -33.605,17.102 -33.144,32.379 -0.231,16.477 12.89,32.965 32.453,32.781 19.105,0.219 32.457,-15.84 32.457,-33.179 -0.461,-17.993 -15.422,-31.981 -31.766,-31.981 z m -0.617,21.985 c -6.394,0 -11.359,5.019 -11.305,10.972 0,6.832 5.149,11.668 11.36,11.531 6.258,0.106 11.676,-4.718 11.621,-11.511 -0.063,-6.266 -5.57,-10.992 -11.676,-10.992 z" /></g></g><path
         id="path112"
         style="fill:#000000;fill-opacity:1;fill-rule:nonzero;stroke:none"
         d="m 211.27,67.465 h 68.25 v 3.867 h -68.25 z" /><g
         id="g114"><path
           id="path116"
           style="fill:#000000;fill-opacity:1;fill-rule:evenodd;stroke:#000000;stroke-width:1.13386;stroke-linecap:butt;stroke-linejoin:miter;stroke-miterlimit:4;stroke-dasharray:none;stroke-opacity:1"
           d="m 279.344,69.398 -5.621,7.227 19.672,-7.227 -19.672,-7.226 z" /></g></g><g
       id="g118"><g
         clip-path="url(#clipPath124)"
         id="g120"><g
           id="g126"><g
             id="g128"><g
               clip-path="url(#clipPath134)"
               id="g130"><g
                 id="g136"><path
                   id="path138"
                   style="fill:#453b61;fill-opacity:1;fill-rule:nonzero;stroke:none"
                   d="M 0,136.906 45.637,68.453 0,0 h 34.227 l 45.636,68.453 -45.636,68.453 z" /><path
                   id="path140"
                   style="fill:#5f5286;fill-opacity:1;fill-rule:nonzero;stroke:none"
                   d="M 45.637,136.906 91.273,68.453 45.637,0 h 34.226 l 91.27,136.906 H 136.906 L 108.387,94.125 79.863,136.906 Z" /><path
                   id="path142"
                   style="fill:#8e508a;fill-opacity:1;fill-rule:nonzero;stroke:none"
                   d="M 155.922,96.977 140.711,74.16 193.953,74.156 v 22.821 z" /><path
                   id="path144"
                   style="fill:#8e508a;fill-opacity:1;fill-rule:nonzero;stroke:none"
                   d="M 133.105,62.75 117.891,39.934 193.953,39.93 v 22.82 z" /></g></g></g></g></g></g></g></svg>
