<?xml version="1.0" encoding="UTF-8" standalone="no"?>
<!-- Created with Inkscape (http://www.inkscape.org/) -->

<svg
   xmlns:dc="http://purl.org/dc/elements/1.1/"
   xmlns:cc="http://creativecommons.org/ns#"
   xmlns:rdf="http://www.w3.org/1999/02/22-rdf-syntax-ns#"
   xmlns:svg="http://www.w3.org/2000/svg"
   xmlns="http://www.w3.org/2000/svg"
   xmlns:xlink="http://www.w3.org/1999/xlink"
   xmlns:sodipodi="http://sodipodi.sourceforge.net/DTD/sodipodi-0.dtd"
   xmlns:inkscape="http://www.inkscape.org/namespaces/inkscape"
   width="189.9921mm"
   height="48.297485mm"
   viewBox="0 0 189.99208 48.297486"
   version="1.1"
   id="svg1236"
   inkscape:version="0.92.4 (5da689c313, 2019-01-14)"
   sodipodi:docname="hs-to-ciao_logo.svg">
  <defs
     id="defs1230">
    <marker
       inkscape:isstock="true"
       style="overflow:visible"
       id="marker8561"
       refX="0"
       refY="0"
       orient="auto"
       inkscape:stockid="Arrow1Lend">
      <path
         transform="matrix(-0.8,0,0,-0.8,-10,0)"
         style="fill:#000000;fill-opacity:1;fill-rule:evenodd;stroke:#000000;stroke-width:1.00000003pt;stroke-opacity:1"
         d="M 0,0 5,-5 -12.5,0 5,5 Z"
         id="path8559"
         inkscape:connector-curvature="0" />
    </marker>
    <marker
       inkscape:stockid="Scissors"
       orient="auto"
       refY="0"
       refX="0"
       id="Scissors"
       style="overflow:visible"
       inkscape:isstock="true">
      <path
         id="schere"
         d="M 9.0898857,-3.6061018 C 8.1198849,-4.7769976 6.3697607,-4.7358294 5.0623558,-4.2327734 l -8.2124046,3.0779029 c -2.3882933,-1.3067135 -4.7482873,-0.9325372 -4.7482873,-1.5687873 0,-0.4973164 0.4566662,-0.3883222 0.3883068,-1.6831941 -0.065635,-1.2432767 -1.3635771,-2.1630796 -2.5903987,-2.0816435 -1.227271,-0.00735 -2.499439,0.9331613 -2.510341,2.2300611 -0.09143,1.3063864 1.007209,2.5196896 2.306764,2.6052316 1.5223406,0.2266616 4.218258,-0.6955566 5.482945,1.57086006 -0.9422847,1.73825774 -2.6140244,1.74307674 -4.1255107,1.65607034 -1.2548743,-0.072235 -2.7620933,0.2873979 -3.3606483,1.5208605 -0.578367,1.1820862 -0.0112,2.8646022 1.316749,3.226412 1.3401912,0.4918277 3.1806689,-0.129711 3.4993722,-1.6707242 0.2456585,-1.187823 -0.5953659,-1.7459574 -0.2725074,-2.1771537 0.2436135,-0.32536 1.7907806,-0.1368452 4.5471053,-1.3748244 L 5.6763468,4.2330688 C 6.8000164,4.5467672 8.1730685,4.5362646 9.1684433,3.4313614 l -9.22008423,-3.48508362 z m -18.3078016,-1.900504 c 1.294559,0.7227998 1.1888392,2.6835702 -0.1564272,3.0632889 -1.2165179,0.423661 -2.7710269,-0.7589694 -2.3831779,-2.0774648 0.227148,-1.0818519 1.653387,-1.480632 2.5396051,-0.9858241 z m 0.056264,8.0173649 c 1.3508301,0.4988648 1.1214429,2.7844356 -0.2522207,3.091609 -0.9110594,0.3163391 -2.2135494,-0.1387976 -2.3056964,-1.2121394 -0.177609,-1.305055 1.356085,-2.4841482 2.5579171,-1.8794696 z"
         style="fill:#000000;fill-opacity:1;stroke:#000000;stroke-opacity:1"
         inkscape:connector-curvature="0" />
    </marker>
    <marker
       inkscape:stockid="Arrow2Lend"
       orient="auto"
       refY="0"
       refX="0"
       id="Arrow2Lend"
       style="overflow:visible"
       inkscape:isstock="true">
      <path
         id="path1914"
         style="fill:#000000;fill-opacity:1;fill-rule:evenodd;stroke:#000000;stroke-width:0.625;stroke-linejoin:round;stroke-opacity:1"
         d="M 8.7185878,4.0337352 -2.2072895,0.01601326 8.7185884,-4.0017078 c -1.7454984,2.3720609 -1.7354408,5.6174519 -6e-7,8.035443 z"
         transform="matrix(-1.1,0,0,-1.1,-1.1,0)"
         inkscape:connector-curvature="0" />
    </marker>
    <marker
       inkscape:stockid="Arrow2Lstart"
       orient="auto"
       refY="0"
       refX="0"
       id="Arrow2Lstart"
       style="overflow:visible"
       inkscape:isstock="true">
      <path
         id="path1911"
         style="fill:#000000;fill-opacity:1;fill-rule:evenodd;stroke:#000000;stroke-width:0.625;stroke-linejoin:round;stroke-opacity:1"
         d="M 8.7185878,4.0337352 -2.2072895,0.01601326 8.7185884,-4.0017078 c -1.7454984,2.3720609 -1.7354408,5.6174519 -6e-7,8.035443 z"
         transform="matrix(1.1,0,0,1.1,1.1,0)"
         inkscape:connector-curvature="0" />
    </marker>
    <linearGradient
       id="linearGradient3534">
      <stop
         style="stop-color:#ffbd00;stop-opacity:1;"
         offset="0"
         id="stop3536" />
      <stop
         style="stop-color:#ffe59f;stop-opacity:1"
         offset="1"
         id="stop3538" />
    </linearGradient>
    <linearGradient
       id="linearGradient3490">
      <stop
         style="stop-color:#8dc2ef;stop-opacity:1;"
         offset="0"
         id="stop3492" />
      <stop
         id="stop3494"
         offset="0.49999991"
         style="stop-color:#0c66a5;stop-opacity:1;" />
      <stop
         style="stop-color:#00447e;stop-opacity:1;"
         offset="1"
         id="stop3496" />
    </linearGradient>
    <linearGradient
       id="linearGradient3472">
      <stop
         id="stop3474"
         offset="0"
         style="stop-color:#d38def;stop-opacity:1;" />
      <stop
         style="stop-color:#7a0ca5;stop-opacity:1;"
         offset="0.5"
         id="stop3480" />
      <stop
         id="stop3476"
         offset="1"
         style="stop-color:#5b007e;stop-opacity:1;" />
    </linearGradient>
    <linearGradient
       id="linearGradient3214">
      <stop
         style="stop-color:#000000;stop-opacity:1;"
         offset="0"
         id="stop3216" />
      <stop
         style="stop-color:#000000;stop-opacity:0;"
         offset="1"
         id="stop3218" />
    </linearGradient>
    <linearGradient
       id="linearGradient3188">
      <stop
         id="stop3190"
         offset="0"
         style="stop-color:#ffbd00;stop-opacity:1;" />
      <stop
         id="stop3192"
         offset="1"
         style="stop-color:#ffe79f;stop-opacity:1;" />
    </linearGradient>
    <linearGradient
       gradientTransform="matrix(1.19565,0,0,1.0383,102.771,-288.97)"
       gradientUnits="userSpaceOnUse"
       y2="363.7417"
       x2="403.5351"
       y1="540.37128"
       x1="403.5351"
       id="linearGradient3204"
       xlink:href="#linearGradient3188" />
    <linearGradient
       gradientTransform="matrix(1.19565,0,0,1.0383,-115.924,-290.97)"
       gradientUnits="userSpaceOnUse"
       y2="448.67822"
       x2="444.67578"
       y1="448.67822"
       x1="230.65758"
       id="linearGradient3470"
       xlink:href="#linearGradient3188" />
    <radialGradient
       gradientUnits="userSpaceOnUse"
       gradientTransform="matrix(1.380846,1.0986779,-0.6184165,0.7772412,66.830304,-766.45165)"
       r="160.05302"
       fy="528.89661"
       fx="471.85617"
       cy="528.89661"
       cx="471.85617"
       id="radialGradient3478"
       xlink:href="#linearGradient3490" />
    <radialGradient
       gradientUnits="userSpaceOnUse"
       gradientTransform="matrix(0.8089771,0.8804175,-1.848458,1.6984674,663.13471,-695.4577)"
       r="98.460442"
       fy="383.23032"
       fx="160.8737"
       cy="383.23032"
       cx="160.8737"
       id="radialGradient3488"
       xlink:href="#linearGradient3490" />
    <linearGradient
       inkscape:collect="always"
       xlink:href="#linearGradient3188"
       id="linearGradient1889"
       gradientUnits="userSpaceOnUse"
       gradientTransform="matrix(1.19565,0,0,1.0383,-115.924,-290.97)"
       x1="230.65758"
       y1="448.67822"
       x2="444.67578"
       y2="448.67822" />
    <clipPath
       id="clip1">
      <path
         id="path8772"
         d="M 0,340.15625 H 481.89062 V 0 H 0 Z m 0,0"
         inkscape:connector-curvature="0" />
    </clipPath>
  </defs>
  <sodipodi:namedview
     id="base"
     pagecolor="#ffffff"
     bordercolor="#666666"
     borderopacity="1.0"
     inkscape:pageopacity="0.0"
     inkscape:pageshadow="2"
     inkscape:zoom="0.70710678"
     inkscape:cx="288.35849"
     inkscape:cy="85.978048"
     inkscape:document-units="mm"
     inkscape:current-layer="g8761"
     showgrid="false"
     inkscape:window-width="1920"
     inkscape:window-height="1017"
     inkscape:window-x="-8"
     inkscape:window-y="-8"
     inkscape:window-maximized="1" />
  <metadata
     id="metadata1233">
    <rdf:RDF>
      <cc:Work
         rdf:about="">
        <dc:format>image/svg+xml</dc:format>
        <dc:type
           rdf:resource="http://purl.org/dc/dcmitype/StillImage" />
        <dc:title></dc:title>
      </cc:Work>
    </rdf:RDF>
  </metadata>
  <g
     inkscape:label="Layer 1"
     inkscape:groupmode="layer"
     id="layer1"
     transform="translate(-11.699873,-110.66157)">
    <g
       id="g1807"
       transform="matrix(0.35744048,0,0,0.35744048,27.636904,110.37798)">
      <g
         id="g1881"
         transform="matrix(0.33193783,0,0,0.33193783,214.57868,23.136787)">
        <g
           transform="translate(132.76906,-3.1989552)"
           id="g1887">
          <path
             inkscape:connector-curvature="0"
             style="font-size:12px;fill:url(#radialGradient3488);fill-opacity:1;fill-rule:evenodd;stroke:#240053;stroke-width:12;stroke-miterlimit:4;stroke-dasharray:none;stroke-opacity:1"
             d="m 143.03511,15.470054 c 54.7512,-1.187815 88.9719,35.660414 88.9719,35.660414 0,0 -44.12068,39.154296 -49.44371,44.155786 -8.21292,-4.75438 -21.33399,-14.26313 -40.49548,-14.26313 -38.96264,-10e-4 -70.128457,29.539636 -68.759438,67.577756 0.484238,37.51066 31.082118,64.467 68.440208,64.467 23.57224,-0.44439 37.27558,-11.1991 49.02763,-21.67555 9.58193,11.88646 30.81907,34.39265 43.40209,50.76145 -28.27593,15.80397 -49.44371,34.2639 -92.51222,32.4448 C 75.825225,276.41768 12.598058,223.83817 11.62994,149.78973 10.26116,70.149009 70.487844,15.470054 143.03511,15.470054 Z"
             id="path126" />
          <path
             inkscape:connector-curvature="0"
             style="font-size:12px;fill:url(#linearGradient1889);fill-opacity:1;fill-rule:evenodd;stroke:#ff7c00;stroke-width:12;stroke-linejoin:round;stroke-miterlimit:4;stroke-dasharray:none;stroke-opacity:1"
             d="m 171.52461,181.21354 c 6.8439,0.17547 58.44337,0.001 65.70216,0.001 0.48424,7.73014 -4.10586,27.33844 30.11364,26.14958 26.69169,-0.59391 42.32362,-21.50423 54.8899,-39.17402 12.56748,-17.66875 22.06811,-32.09697 45.33905,-32.09697 23.62604,0 41.55003,17.35207 41.74373,42.93267 0.0921,14.84457 -6.9001,28.10782 -33.57983,47.6424 -26.67974,19.53457 -73.48824,46.66743 -108.39285,47.26133 -71.17824,-1.18885 -97.18482,-46.35801 -95.8158,-92.71603 z M 200.09825,75.856198 c 18.99171,-0.107983 34.13222,14.714788 34.47418,33.867272 0,19.20959 -15.67736,34.31374 -34.47418,34.31374 -18.9379,-0.17028 -33.67787,-14.53205 -33.79026,-34.25975 -0.40055,-18.020735 14.96953,-33.858964 33.79026,-33.921262 z"
             id="path135" />
          <path
             inkscape:connector-curvature="0"
             style="font-size:12px;fill:url(#radialGradient3478);fill-opacity:1;fill-rule:evenodd;stroke:#240053;stroke-width:12;stroke-miterlimit:4;stroke-dasharray:none;stroke-opacity:1"
             d="m 428.96681,250.96786 c 16.42465,14.85807 36.95755,24.36786 67.07119,24.96177 37.05558,-0.15263 102.81155,-40.04204 118.00946,-52.38224 14.11106,-11.12642 24.19397,-26.53998 24.19397,-44.26376 -0.0825,-20.31538 -18.00051,-39.28824 -41.31329,-39.86657 -25.83561,0.15159 -34.45146,15.09792 -48.78372,32.69503 -14.33345,17.59815 -29.52179,37.84707 -53.47544,38.44098 -26.00659,-1.18885 -34.95363,-15.69183 -34.78624,-36.84823 -0.48424,-43.30022 -38.66015,-91.527182 -95.817,-91.527182 -53.05099,-0.966658 -97.01863,47.404622 -95.65081,93.160432 -0.96728,49.76468 36.15765,100.59154 100.3246,99.40269 24.63876,-1.18782 42.43362,-10.69761 60.22728,-23.77292 z M 364.02509,145.73615 c -21.15225,0 -33.96962,15.97633 -33.9481,33.58693 0,18.37999 12.64879,34.31063 33.90744,34.35631 18.41421,0 33.54516,-13.92672 33.52603,-33.90257 0.0203,-18.93652 -13.76432,-33.58589 -33.48537,-34.04067 z"
             id="path134" />
          <path
             inkscape:connector-curvature="0"
             style="font-size:12px;fill:url(#linearGradient3204);fill-opacity:1;fill-rule:evenodd;stroke:#ff7c00;stroke-width:12;stroke-miterlimit:4;stroke-dasharray:none;stroke-opacity:1"
             d="m 587.32729,82.177603 c -58.85946,-0.642708 -99.92286,50.859047 -98.55384,96.282597 -0.68391,48.98907 38.32776,98.01552 96.50091,97.46937 56.80533,0.64271 96.50091,-47.09832 96.50091,-98.65926 -1.36902,-53.4901 -45.85676,-95.092707 -94.44798,-95.092707 z m -1.83412,65.377597 c -19.01562,0 -33.76994,14.9183 -33.60733,32.62027 0,20.30915 15.30432,34.6896 33.76635,34.28051 18.6067,0.32084 34.71689,-14.02743 34.55309,-34.22444 -0.17935,-18.62295 -16.55976,-32.67634 -34.71211,-32.67634 z"
             id="path131" />
        </g>
        <g
           transform="translate(93.462449,-148.82948)"
           id="g8761">
          <path
             inkscape:connector-curvature="0"
             id="path8557"
             d="m -246.05925,282.10816 v 11.5039 h 202.929688 v -11.5039 z"
             style="color:#000000;font-style:normal;font-variant:normal;font-weight:normal;font-stretch:normal;font-size:medium;line-height:normal;font-family:sans-serif;font-variant-ligatures:normal;font-variant-position:normal;font-variant-caps:normal;font-variant-numeric:normal;font-variant-alternates:normal;font-feature-settings:normal;text-indent:0;text-align:start;text-decoration:none;text-decoration-line:none;text-decoration-style:solid;text-decoration-color:#000000;letter-spacing:normal;word-spacing:normal;text-transform:none;writing-mode:lr-tb;direction:ltr;text-orientation:mixed;dominant-baseline:auto;baseline-shift:baseline;text-anchor:start;white-space:normal;shape-padding:0;clip-rule:nonzero;display:inline;overflow:visible;visibility:visible;opacity:1;isolation:auto;mix-blend-mode:normal;color-interpolation:sRGB;color-interpolation-filters:linearRGB;solid-color:#000000;solid-opacity:1;vector-effect:none;fill:#000000;fill-opacity:1;fill-rule:nonzero;stroke:none;stroke-width:11.50461674;stroke-linecap:butt;stroke-linejoin:miter;stroke-miterlimit:4;stroke-dasharray:none;stroke-dashoffset:0;stroke-opacity:1;color-rendering:auto;image-rendering:auto;shape-rendering:auto;text-rendering:auto;enable-background:accumulate" />
          <path
             inkscape:connector-curvature="0"
             style="fill:#000000;fill-opacity:1;fill-rule:evenodd;stroke:#000000;stroke-width:3.37131634;stroke-miterlimit:4;stroke-dasharray:none;stroke-opacity:1"
             d="M -43.650243,287.86052 -60.360333,309.34915 -1.8750128,287.86052 -60.360333,266.3719 Z"
             id="path8719" />
        </g>
      </g>
      <g
         id="surface0"
         transform="matrix(0.39723025,0,0,0.39723025,-44.58653,0.79338438)"
         style="stroke-width:2.48459244">
        <g
           id="g8785"
           clip-path="url(#clip1)"
           style="clip-rule:nonzero;stroke-width:2.48459244">
          <path
             id="path8777"
             d="M 0,340.15625 113.38672,170.07812 0,0 H 85.039062 L 198.42578,170.07812 85.039062,340.15625 Z m 0,0"
             style="fill:#453b61;fill-opacity:1;fill-rule:nonzero;stroke:none;stroke-width:2.48459244"
             inkscape:connector-curvature="0" />
          <path
             id="path8779"
             d="M 113.38672,340.15625 226.77344,170.07812 113.38672,0 h 85.03906 L 425.19531,340.15625 H 340.15625 L 269.29297,233.85937 198.42578,340.15625 Z m 0,0"
             style="fill:#5f5286;fill-opacity:1;fill-rule:nonzero;stroke:none;stroke-width:2.48459244"
             inkscape:connector-curvature="0" />
          <path
             id="path8781"
             d="m 387.40234,240.94531 -37.79297,-56.6914 132.28125,-0.004 v 56.69531 z m 0,0"
             style="fill:#8e508a;fill-opacity:1;fill-rule:nonzero;stroke:none;stroke-width:2.48459244"
             inkscape:connector-curvature="0" />
          <path
             id="path8783"
             d="m 330.71094,155.90625 -37.79688,-56.691406 188.97656,-0.0039 v 56.695316 z m 0,0"
             style="fill:#8e508a;fill-opacity:1;fill-rule:nonzero;stroke:none;stroke-width:2.48459244"
             inkscape:connector-curvature="0" />
        </g>
      </g>
    </g>
  </g>
</svg>
